#N canvas 537 93 637 417 10;
#X obj 327 197 ctlin;
#X obj 327 220 pack f f;
#X msg 327 243 midiCC \$2 \$1;
#X obj 137 13 loadbang;
#X msg 39 311 loadpreset default;
#X obj 432 187 notein;
#X obj 432 218 pack f f;
#X obj 432 244 s notes;
#X msg 118 174 loadsettings \$1;
#X obj 125 111 symbol \$1;
#X msg 283 86 loaddefinitions \$1-module.json;
#X obj 283 118 KontrolModule \$1 \$1;
#X obj 283 55 symbol \$1;
#X obj 7 25 bng 15 250 50 0 empty empty empty 17 7 0 10 -262144 -1
-1;
#X text 28 23 refresh;
#X obj 156 81 s rack-refresh;
#X obj 137 48 t b b b;
#X obj 78 56 del 5;
#X obj 327 305 KontrolRack kontrol 6000 6001 1;
#X msg 104 220 singlemodulemode 1;
#X obj 40 94 t b b b b;
#X msg 101 265 monitorenable 1;
#X connect 0 0 1 0;
#X connect 0 1 1 1;
#X connect 1 0 2 0;
#X connect 2 0 18 0;
#X connect 3 0 17 0;
#X connect 4 0 18 0;
#X connect 5 0 6 0;
#X connect 5 1 6 1;
#X connect 6 0 7 0;
#X connect 8 0 18 0;
#X connect 9 0 8 0;
#X connect 10 0 11 0;
#X connect 12 0 10 0;
#X connect 13 0 17 0;
#X connect 16 1 12 0;
#X connect 16 1 15 0;
#X connect 17 0 20 0;
#X connect 19 0 18 0;
#X connect 20 0 4 0;
#X connect 20 1 9 0;
#X connect 20 1 16 0;
#X connect 20 2 19 0;
#X connect 20 2 21 0;
#X connect 21 0 18 0;
#X coords 0 0 1 1 85 40 1 5 5;
